<svg xmlns="http://www.w3.org/2000/svg" xmlns:xlink="http://www.w3.org/1999/xlink" viewBox="0 0 309.62 104.45"><defs><style>.cls-1,.cls-2,.cls-5{fill:none;}.cls-2{stroke:#231815;stroke-linecap:square;stroke-width:0.3px;}.cls-3{fill:#fdfff4;}.cls-4{opacity:0.34;fill:url(#USGS_8_污水处理);}.cls-5{stroke:#7e5040;stroke-miterlimit:10;stroke-width:2px;}.cls-6{fill:#7e5040;}</style><pattern id="USGS_8_污水处理" data-name="USGS 8 污水处理" width="72" height="74.8" patternUnits="userSpaceOnUse" viewBox="0 0 72 74.8"><rect class="cls-1" width="72" height="74.8"/><line class="cls-2" x1="72" y1="73.95" x2="144" y2="73.95"/><line class="cls-2" x1="72" y1="72.25" x2="144" y2="72.25"/><line class="cls-2" x1="72" y1="70.55" x2="144" y2="70.55"/><line class="cls-2" x1="72" y1="68.85" x2="144" y2="68.85"/><line class="cls-2" x1="72" y1="67.15" x2="144" y2="67.15"/><line class="cls-2" x1="72" y1="65.45" x2="144" y2="65.45"/><line class="cls-2" x1="72" y1="63.75" x2="144" y2="63.75"/><line class="cls-2" x1="72" y1="62.05" x2="144" y2="62.05"/><line class="cls-2" x1="72" y1="60.35" x2="144" y2="60.35"/><line class="cls-2" x1="72" y1="58.65" x2="144" y2="58.65"/><line class="cls-2" x1="72" y1="56.95" x2="144" y2="56.95"/><line class="cls-2" x1="72" y1="55.25" x2="144" y2="55.25"/><line class="cls-2" x1="72" y1="53.55" x2="144" y2="53.55"/><line class="cls-2" x1="72" y1="51.85" x2="144" y2="51.85"/><line class="cls-2" x1="72" y1="50.15" x2="144" y2="50.15"/><line class="cls-2" x1="72" y1="48.45" x2="144" y2="48.45"/><line class="cls-2" x1="72" y1="46.75" x2="144" y2="46.75"/><line class="cls-2" x1="72" y1="45.05" x2="144" y2="45.05"/><line class="cls-2" x1="72" y1="43.35" x2="144" y2="43.35"/><line class="cls-2" x1="72" y1="41.65" x2="144" y2="41.65"/><line class="cls-2" x1="72" y1="39.95" x2="144" y2="39.95"/><line class="cls-2" x1="72" y1="38.25" x2="144" y2="38.25"/><line class="cls-2" x1="72" y1="36.55" x2="144" y2="36.55"/><line class="cls-2" x1="72" y1="34.85" x2="144" y2="34.85"/><line class="cls-2" x1="72" y1="33.15" x2="144" y2="33.15"/><line class="cls-2" x1="72" y1="31.45" x2="144" y2="31.45"/><line class="cls-2" x1="72" y1="29.75" x2="144" y2="29.75"/><line class="cls-2" x1="72" y1="28.05" x2="144" y2="28.05"/><line class="cls-2" x1="72" y1="26.35" x2="144" y2="26.35"/><line class="cls-2" x1="72" y1="24.65" x2="144" y2="24.65"/><line class="cls-2" x1="72" y1="22.95" x2="144" y2="22.95"/><line class="cls-2" x1="72" y1="21.25" x2="144" y2="21.25"/><line class="cls-2" x1="72" y1="19.55" x2="144" y2="19.55"/><line class="cls-2" x1="72" y1="17.85" x2="144" y2="17.85"/><line class="cls-2" x1="72" y1="16.15" x2="144" y2="16.15"/><line class="cls-2" x1="72" y1="14.45" x2="144" y2="14.45"/><line class="cls-2" x1="72" y1="12.75" x2="144" y2="12.75"/><line class="cls-2" x1="72" y1="11.05" x2="144" y2="11.05"/><line class="cls-2" x1="72" y1="9.35" x2="144" y2="9.35"/><line class="cls-2" x1="72" y1="7.65" x2="144" y2="7.65"/><line class="cls-2" x1="72" y1="5.95" x2="144" y2="5.95"/><line class="cls-2" x1="72" y1="4.25" x2="144" y2="4.25"/><line class="cls-2" x1="72" y1="2.55" x2="144" y2="2.55"/><line class="cls-2" x1="72" y1="0.85" x2="144" y2="0.85"/><line class="cls-2" y1="73.95" x2="72" y2="73.95"/><line class="cls-2" y1="72.25" x2="72" y2="72.25"/><line class="cls-2" y1="70.55" x2="72" y2="70.55"/><line class="cls-2" y1="68.85" x2="72" y2="68.85"/><line class="cls-2" y1="67.15" x2="72" y2="67.15"/><line class="cls-2" y1="65.45" x2="72" y2="65.45"/><line class="cls-2" y1="63.75" x2="72" y2="63.75"/><line class="cls-2" y1="62.05" x2="72" y2="62.05"/><line class="cls-2" y1="60.35" x2="72" y2="60.35"/><line class="cls-2" y1="58.65" x2="72" y2="58.65"/><line class="cls-2" y1="56.95" x2="72" y2="56.95"/><line class="cls-2" y1="55.25" x2="72" y2="55.25"/><line class="cls-2" y1="53.55" x2="72" y2="53.55"/><line class="cls-2" y1="51.85" x2="72" y2="51.85"/><line class="cls-2" y1="50.15" x2="72" y2="50.15"/><line class="cls-2" y1="48.45" x2="72" y2="48.45"/><line class="cls-2" y1="46.75" x2="72" y2="46.75"/><line class="cls-2" y1="45.05" x2="72" y2="45.05"/><line class="cls-2" y1="43.35" x2="72" y2="43.35"/><line class="cls-2" y1="41.65" x2="72" y2="41.65"/><line class="cls-2" y1="39.95" x2="72" y2="39.95"/><line class="cls-2" y1="38.25" x2="72" y2="38.25"/><line class="cls-2" y1="36.55" x2="72" y2="36.55"/><line class="cls-2" y1="34.85" x2="72" y2="34.85"/><line class="cls-2" y1="33.15" x2="72" y2="33.15"/><line class="cls-2" y1="31.45" x2="72" y2="31.45"/><line class="cls-2" y1="29.75" x2="72" y2="29.75"/><line class="cls-2" y1="28.05" x2="72" y2="28.05"/><line class="cls-2" y1="26.35" x2="72" y2="26.35"/><line class="cls-2" y1="24.65" x2="72" y2="24.65"/><line class="cls-2" y1="22.95" x2="72" y2="22.95"/><line class="cls-2" y1="21.25" x2="72" y2="21.25"/><line class="cls-2" y1="19.55" x2="72" y2="19.55"/><line class="cls-2" y1="17.85" x2="72" y2="17.85"/><line class="cls-2" y1="16.15" x2="72" y2="16.15"/><line class="cls-2" y1="14.45" x2="72" y2="14.45"/><line class="cls-2" y1="12.75" x2="72" y2="12.75"/><line class="cls-2" y1="11.05" x2="72" y2="11.05"/><line class="cls-2" y1="9.35" x2="72" y2="9.35"/><line class="cls-2" y1="7.65" x2="72" y2="7.65"/><line class="cls-2" y1="5.95" x2="72" y2="5.95"/><line class="cls-2" y1="4.25" x2="72" y2="4.25"/><line class="cls-2" y1="2.55" x2="72" y2="2.55"/><line class="cls-2" y1="0.85" x2="72" y2="0.85"/><line class="cls-2" x1="-72" y1="73.95" y2="73.95"/><line class="cls-2" x1="-72" y1="72.25" y2="72.25"/><line class="cls-2" x1="-72" y1="70.55" y2="70.55"/><line class="cls-2" x1="-72" y1="68.85" y2="68.85"/><line class="cls-2" x1="-72" y1="67.15" y2="67.15"/><line class="cls-2" x1="-72" y1="65.45" y2="65.45"/><line class="cls-2" x1="-72" y1="63.75" y2="63.75"/><line class="cls-2" x1="-72" y1="62.05" y2="62.05"/><line class="cls-2" x1="-72" y1="60.35" y2="60.35"/><line class="cls-2" x1="-72" y1="58.65" y2="58.65"/><line class="cls-2" x1="-72" y1="56.95" y2="56.95"/><line class="cls-2" x1="-72" y1="55.25" y2="55.25"/><line class="cls-2" x1="-72" y1="53.55" y2="53.55"/><line class="cls-2" x1="-72" y1="51.85" y2="51.85"/><line class="cls-2" x1="-72" y1="50.15" y2="50.15"/><line class="cls-2" x1="-72" y1="48.45" y2="48.45"/><line class="cls-2" x1="-72" y1="46.75" y2="46.75"/><line class="cls-2" x1="-72" y1="45.05" y2="45.05"/><line class="cls-2" x1="-72" y1="43.35" y2="43.35"/><line class="cls-2" x1="-72" y1="41.65" y2="41.65"/><line class="cls-2" x1="-72" y1="39.95" y2="39.95"/><line class="cls-2" x1="-72" y1="38.25" y2="38.25"/><line class="cls-2" x1="-72" y1="36.55" y2="36.55"/><line class="cls-2" x1="-72" y1="34.85" y2="34.85"/><line class="cls-2" x1="-72" y1="33.15" y2="33.15"/><line class="cls-2" x1="-72" y1="31.45" y2="31.45"/><line class="cls-2" x1="-72" y1="29.75" y2="29.75"/><line class="cls-2" x1="-72" y1="28.05" y2="28.05"/><line class="cls-2" x1="-72" y1="26.35" y2="26.35"/><line class="cls-2" x1="-72" y1="24.65" y2="24.65"/><line class="cls-2" x1="-72" y1="22.95" y2="22.95"/><line class="cls-2" x1="-72" y1="21.25" y2="21.25"/><line class="cls-2" x1="-72" y1="19.55" y2="19.55"/><line class="cls-2" x1="-72" y1="17.85" y2="17.85"/><line class="cls-2" x1="-72" y1="16.15" y2="16.15"/><line class="cls-2" x1="-72" y1="14.45" y2="14.45"/><line class="cls-2" x1="-72" y1="12.75" y2="12.75"/><line class="cls-2" x1="-72" y1="11.05" y2="11.05"/><line class="cls-2" x1="-72" y1="9.35" y2="9.35"/><line class="cls-2" x1="-72" y1="7.65" y2="7.65"/><line class="cls-2" x1="-72" y1="5.95" y2="5.95"/><line class="cls-2" x1="-72" y1="4.25" y2="4.25"/><line class="cls-2" x1="-72" y1="2.55" y2="2.55"/><line class="cls-2" x1="-72" y1="0.85" y2="0.85"/></pattern></defs><g id="图层_2" data-name="图层 2"><g id="图层_2-2" data-name="图层 2"><path class="cls-3" d="M56,63.14C47.07,49.46,39.73,41.39,33.6,38.47l-.41-.19H19.83V56.13h6c2.65,0,3.81.55,4.32,1a3.5,3.5,0,0,1,0,5c-.51.46-1.67,1-4.32,1H9.1c-2.64,0-3.81-.55-4.32-1a3.15,3.15,0,0,1-1-2.52,3.05,3.05,0,0,1,1-2.45c.53-.47,1.7-1,4.31-1h3.72V9.06H9.1c-2.64,0-3.81-.55-4.32-1a3.15,3.15,0,0,1-1-2.52A3.15,3.15,0,0,1,4.78,3c.51-.46,1.68-1,4.32-1L34,2.05c7.23,0,12.86,1.77,16.74,5.26a16.15,16.15,0,0,1,5.76,12.55,13.69,13.69,0,0,1-2.64,8.22A24.37,24.37,0,0,1,45.48,35L43,36.34l2.16,1.89a68,68,0,0,1,7.25,7.62c1.58,2,3.78,5.11,6.52,9.37l.59.91h1.09c3.5,0,4.37.49,4.45.55a3.31,3.31,0,0,1,1.5,3,3.16,3.16,0,0,1-1,2.48c-.7.65-2.23,1-4.29,1ZM19.83,31.26h10.6a25.73,25.73,0,0,0,9.26-1.58c3.73-1.43,6.22-3,7.62-4.69a8.7,8.7,0,0,0,2.2-5.5c0-2.71-1.38-5.18-4.09-7.34s-6.26-3.09-11-3.09H19.83Z"/><path class="cls-3" d="M222.25,63.14V30.39c0-2.23-.48-3.82-1.46-4.86a5.59,5.59,0,0,0-4.25-1.6,8.33,8.33,0,0,0-4.44,1.27,25.1,25.1,0,0,0-5.36,5.53l-.42.54V56.13h2a5.5,5.5,0,0,1,3.74,1,3.23,3.23,0,0,1,1,2.51,3.13,3.13,0,0,1-1,2.48c-.7.65-2.23,1-4.29,1h-8.47V30.39a6.79,6.79,0,0,0-1.49-4.84,5.62,5.62,0,0,0-4.27-1.62,9,9,0,0,0-4.9,1.53,21.16,21.16,0,0,0-5,5.31l-.38.53V56.13h2a5.56,5.56,0,0,1,3.77,1,3.19,3.19,0,0,1,1.05,2.5,3.09,3.09,0,0,1-1,2.47c-.51.46-1.67,1-4.32,1h-9.94c-2.65,0-3.81-.55-4.32-1a3.55,3.55,0,0,1,0-5,5.77,5.77,0,0,1,3.8-1h2V25.38h-2a5.65,5.65,0,0,1-3.78-1,3.21,3.21,0,0,1-1-2.52,3.09,3.09,0,0,1,1-2.46c.51-.47,1.67-1,4.32-1h8.48v5.88l3.4-3.33a16.31,16.31,0,0,1,4.29-3.24,10,10,0,0,1,4.19-.81,8.61,8.61,0,0,1,3.89,1A15.15,15.15,0,0,1,203.06,21l1.29,1.35,1.44-1.19a19.2,19.2,0,0,1,5.23-3.2,14.29,14.29,0,0,1,5.25-1,12.68,12.68,0,0,1,8.63,2.8,12.08,12.08,0,0,1,4.36,9.76V56.13h2a5.47,5.47,0,0,1,3.73,1,3.2,3.2,0,0,1,1,2.51,3.13,3.13,0,0,1-1,2.48c-.7.65-2.22,1-4.28,1Z"/><path class="cls-3" d="M174.48,90.28l-15-33.23a24.65,24.65,0,1,0-31.49,0l-15,33.23a10.05,10.05,0,0,0,9.17,14.17h43.07a10.05,10.05,0,0,0,9.17-14.17Zm-9.17,7.85H122.24a3.72,3.72,0,0,1-3.4-5.26L136,54.7a18.33,18.33,0,1,1,15.51,0l17.19,38.17A3.73,3.73,0,0,1,165.31,98.13Z"/><path class="cls-3" d="M89.39,13.85A24.65,24.65,0,1,0,114,38.5,24.67,24.67,0,0,0,89.39,13.85Zm0,43A18.33,18.33,0,1,1,107.72,38.5,18.32,18.32,0,0,1,89.39,56.82Z"/><path class="cls-3" d="M256.23,48.42a8.61,8.61,0,0,1,2.8,3,7.61,7.61,0,0,1-3.85,10.79,16,16,0,0,1-6.09,1c-3.27,0-5.72-.5-7.37-1.52a2.46,2.46,0,0,1-1.38-2.06A2.1,2.1,0,0,1,241,58a2,2,0,0,1,1.47-.63,2.28,2.28,0,0,1,1.23.41,5.51,5.51,0,0,0,1.71.82,15.24,15.24,0,0,0,3.4.29,11.22,11.22,0,0,0,5.33-1,3,3,0,0,0,1.65-2.71,4,4,0,0,0-1-2.5,6.16,6.16,0,0,0-2.56-1.87,11.8,11.8,0,0,0-3.13-.51,2.36,2.36,0,0,1-1.62-.65,2.17,2.17,0,0,1,.06-3,2.08,2.08,0,0,1,1.56-.62c1.4,0,2.15,0,2.24,0a4.44,4.44,0,0,0,1.65-.54,3.6,3.6,0,0,0,1.33-1.24,3,3,0,0,0,.5-1.64,2.94,2.94,0,0,0-1.18-2.32,5.49,5.49,0,0,0-3.55-1,6,6,0,0,0-4.65,1.77,3.2,3.2,0,0,1-.77.66,2.14,2.14,0,0,1-2.45-.4,2.07,2.07,0,0,1-.61-1.52q0-1.43,1.89-2.76a11.66,11.66,0,0,1,6.9-1.95,8.83,8.83,0,0,1,6.28,2.22A7.1,7.1,0,0,1,259,42.78a6.69,6.69,0,0,1-.7,3A8,8,0,0,1,256.23,48.42Z"/><path class="cls-3" d="M271.57,58.92h9.24a2.35,2.35,0,0,1,1.45-.61,2,2,0,0,1,1.53.63,3.31,3.31,0,0,1,.57,2.19v2H265.13V58.68q11.4-9.42,13.77-12.11A4.08,4.08,0,0,0,280.09,44a3.57,3.57,0,0,0-1.34-2.73,5.26,5.26,0,0,0-3.6-1.19,5.48,5.48,0,0,0-3.76,1.32,4.82,4.82,0,0,0-1.26,2.08,2.47,2.47,0,0,1-.79,1.24,2.1,2.1,0,0,1-1.25.37,2.07,2.07,0,0,1-1.49-.62A2,2,0,0,1,266,43a6.31,6.31,0,0,1,1.14-3.09,8.2,8.2,0,0,1,3.34-3,10.28,10.28,0,0,1,4.77-1.12,9.13,9.13,0,0,1,6.54,2.42,7.8,7.8,0,0,1,2.55,5.86,7.2,7.2,0,0,1-.73,3.24,16.89,16.89,0,0,1-3.51,4.13Q277.9,53.56,271.57,58.92Z"/><path class="cls-3" d="M305.17,40.68h-9.66a2.63,2.63,0,0,1-.63,1.78,2.19,2.19,0,0,1-3-.09,3.17,3.17,0,0,1-.59-2.16V36.46h18.33v4.22L302.78,61a3.76,3.76,0,0,1-1,1.7,2,2,0,0,1-1.26.42,2.1,2.1,0,0,1-1.52-.61,2,2,0,0,1-.62-1.42,5.21,5.21,0,0,1,.33-1.45Z"/><path class="cls-4" d="M161.57,96.14H118.49a3.73,3.73,0,0,1-3.4-5.26l17.18-38.17a18.33,18.33,0,1,1,15.52,0L165,90.88A3.73,3.73,0,0,1,161.57,96.14Z"/><path class="cls-5" d="M118.49,93.14a.73.73,0,0,1-.66-1l18.39-40.86L133.54,50a15.33,15.33,0,1,1,13,0l-2.68,1.26,18.39,40.86a.73.73,0,0,1-.66,1Z"/><path class="cls-6" d="M52.26,61.15C43.32,47.47,36,39.4,29.85,36.48l-.41-.2H16.09V54.14h6c2.65,0,3.82.55,4.33,1a3.18,3.18,0,0,1,1,2.52,3.12,3.12,0,0,1-1,2.47c-.51.46-1.68,1-4.33,1H5.36c-2.65,0-3.82-.55-4.33-1a3.18,3.18,0,0,1-1-2.52,3.06,3.06,0,0,1,1.05-2.46c.52-.46,1.7-1,4.31-1H9.08V7.06H5.36c-2.65,0-3.82-.55-4.33-1A3.18,3.18,0,0,1,0,3.53,3.18,3.18,0,0,1,1,1C1.54.55,2.71,0,5.36,0L30.28.05C37.5.05,43.13,1.82,47,5.31a16.17,16.17,0,0,1,5.75,12.56,13.69,13.69,0,0,1-2.63,8.21,24.37,24.37,0,0,1-8.4,6.9l-2.53,1.36,2.16,1.9a69.89,69.89,0,0,1,7.25,7.62c1.57,2,3.77,5.11,6.51,9.36l.59.92h1.09c3.51,0,4.37.49,4.46.55a3.32,3.32,0,0,1,1.49,3,3.13,3.13,0,0,1-1,2.48c-.7.64-2.22,1-4.28,1ZM16.09,29.27H26.68a25.69,25.69,0,0,0,9.26-1.58c3.73-1.43,6.23-3,7.63-4.69a8.74,8.74,0,0,0,2.19-5.5c0-2.71-1.37-5.18-4.08-7.34s-6.26-3.1-11-3.1H16.09Z"/><path class="cls-6" d="M218.5,61.15V28.4c0-2.23-.48-3.82-1.46-4.86a5.59,5.59,0,0,0-4.25-1.6,8.27,8.27,0,0,0-4.43,1.27A24.88,24.88,0,0,0,203,28.74l-.41.54V54.14h2a5.42,5.42,0,0,1,3.73,1,3.2,3.2,0,0,1,1,2.51,3.16,3.16,0,0,1-1,2.48c-.71.64-2.23,1-4.29,1h-8.47V28.4a6.78,6.78,0,0,0-1.49-4.84,5.65,5.65,0,0,0-4.27-1.62,9,9,0,0,0-4.9,1.53,21,21,0,0,0-5,5.31l-.39.52V54.14h2a5.6,5.6,0,0,1,3.78,1,3.18,3.18,0,0,1,1,2.5,3.12,3.12,0,0,1-1,2.47c-.51.46-1.68,1-4.33,1H171c-2.65,0-3.82-.55-4.33-1a3.18,3.18,0,0,1-1-2.52,3.13,3.13,0,0,1,1-2.48,5.75,5.75,0,0,1,3.8-1h2V23.39h-2a5.66,5.66,0,0,1-3.79-1,3.24,3.24,0,0,1-1-2.52,3.1,3.1,0,0,1,1-2.46c.51-.47,1.68-1,4.33-1h8.47v5.88l3.4-3.33a16.25,16.25,0,0,1,4.29-3.24,10,10,0,0,1,4.19-.81,8.61,8.61,0,0,1,3.89,1A15,15,0,0,1,199.32,19l1.28,1.34L202,19.14A19.46,19.46,0,0,1,207.27,16a14.18,14.18,0,0,1,5.26-1,12.68,12.68,0,0,1,8.63,2.8,12.07,12.07,0,0,1,4.35,9.76V54.14h2a5.45,5.45,0,0,1,3.74,1,3.23,3.23,0,0,1,1,2.51,3.13,3.13,0,0,1-1,2.48c-.7.64-2.23,1-4.29,1Z"/><path class="cls-6" d="M170.73,88.29l-15-33.23a24.65,24.65,0,1,0-31.48,0l-15,33.23a10,10,0,0,0,9.16,14.17h43.08a10,10,0,0,0,9.16-14.17Zm-9.16,7.85H118.49a3.73,3.73,0,0,1-3.4-5.26l17.18-38.17a18.33,18.33,0,1,1,15.52,0L165,90.88A3.73,3.73,0,0,1,161.57,96.14Z"/><path class="cls-6" d="M85.65,11.86A24.65,24.65,0,1,0,110.3,36.51,24.68,24.68,0,0,0,85.65,11.86Zm0,43A18.33,18.33,0,1,1,104,36.51,18.33,18.33,0,0,1,85.65,54.83Z"/><rect class="cls-6" x="214.87" y="44.76" width="21" height="4.4" rx="2.2"/><path class="cls-6" d="M252.49,46.43a8.71,8.71,0,0,1,2.8,3,7.58,7.58,0,0,1,.92,3.75A7.48,7.48,0,0,1,255,57.29a7.57,7.57,0,0,1-3.55,2.88,15.78,15.78,0,0,1-6.1,1q-4.89,0-7.37-1.52a2.47,2.47,0,0,1-1.37-2.06,2.12,2.12,0,0,1,.6-1.53,2,2,0,0,1,1.47-.63,2.26,2.26,0,0,1,1.24.41,5.31,5.31,0,0,0,1.71.82,15.74,15.74,0,0,0,3.4.29,11.1,11.1,0,0,0,5.33-1,3,3,0,0,0,1.64-2.7,3.94,3.94,0,0,0-1-2.5,6.2,6.2,0,0,0-2.57-1.87,11,11,0,0,0-3.13-.51,2.33,2.33,0,0,1-1.61-.65,2,2,0,0,1-.57-1.45,2.1,2.1,0,0,1,2.18-2.14c1.4,0,2.15,0,2.25,0a4.44,4.44,0,0,0,1.65-.54,3.65,3.65,0,0,0,1.32-1.24,3,3,0,0,0,.51-1.64,2.94,2.94,0,0,0-1.19-2.32,5.47,5.47,0,0,0-3.55-1,6,6,0,0,0-4.65,1.77,2.94,2.94,0,0,1-.76.66,2.07,2.07,0,0,1-1,.23,2,2,0,0,1-1.48-.62,2.07,2.07,0,0,1-.62-1.52c0-1,.63-1.87,1.9-2.76a11.61,11.61,0,0,1,6.89-2,8.81,8.81,0,0,1,6.28,2.23,7.06,7.06,0,0,1,2.37,5.35,6.72,6.72,0,0,1-.7,3A8.31,8.31,0,0,1,252.49,46.43Z"/><path class="cls-6" d="M267.83,56.93h9.24a2.36,2.36,0,0,1,1.44-.62A1.94,1.94,0,0,1,280,57a3.28,3.28,0,0,1,.57,2.18v2H261.38V56.68q11.42-9.41,13.78-12.1A4.13,4.13,0,0,0,276.35,42,3.53,3.53,0,0,0,275,39.24a5.25,5.25,0,0,0-3.59-1.19,5.5,5.5,0,0,0-3.77,1.32,4.92,4.92,0,0,0-1.26,2.08,2.33,2.33,0,0,1-.79,1.23,2,2,0,0,1-1.24.38,2.08,2.08,0,0,1-1.5-.62,2,2,0,0,1-.62-1.44,6.27,6.27,0,0,1,1.14-3.09,8.13,8.13,0,0,1,3.33-3,10.43,10.43,0,0,1,4.77-1.11A9.17,9.17,0,0,1,278,36.25a7.78,7.78,0,0,1,2.55,5.86,7.23,7.23,0,0,1-.73,3.24,17.37,17.37,0,0,1-3.51,4.13Q274.14,51.55,267.83,56.93Z"/><path class="cls-6" d="M301.42,38.69h-9.65a2.71,2.71,0,0,1-.64,1.78,2,2,0,0,1-1.46.55,2,2,0,0,1-1.53-.64,3.14,3.14,0,0,1-.59-2.16V34.47h18.32v4.22L299,59a3.76,3.76,0,0,1-1,1.7,2,2,0,0,1-1.27.42,2,2,0,0,1-1.51-.62,1.92,1.92,0,0,1-.63-1.42,5.23,5.23,0,0,1,.33-1.44Z"/></g></g></svg>